<svg width="38" height="38" viewBox="0 0 38 38" xmlns="http://www.w3.org/2000/svg"><g><rect x="12" y="1" width="4" height="1" fill="#0E1117"/><rect x="13" y="2" width="4" height="1" fill="#0E1117"/><rect x="14" y="3" width="4" height="7" fill="#0E1117"/><rect x="6" y="4" width="5" height="1" fill="#0E1117"/><rect x="18" y="4" width="1" height="8" fill="#0E1117"/><rect x="7" y="5" width="6" height="1" fill="#0E1117"/><rect x="8" y="6" width="6" height="1" fill="#0E1117"/><rect x="19" y="6" width="3" height="4" fill="#0E1117"/><rect x="9" y="7" width="5" height="2" fill="#0E1117"/><rect x="22" y="7" width="2" height="5" fill="#0E1117"/><rect x="24" y="8" width="1" height="8" fill="#0E1117"/><rect x="10" y="9" width="4" height="2" fill="#0E1117"/><rect x="5" y="10" width="5" height="1" fill="#0E1117"/><rect x="14" y="10" width="1" height="1" fill="#CE7D53"/><rect x="15" y="10" width="3" height="3" fill="#0E1117"/><rect x="19" y="10" width="1" height="1" fill="#0E1117"/><rect x="20" y="10" width="1" height="1" fill="#CE7D53"/><rect x="21" y="10" width="1" height="3" fill="#0E1117"/><rect x="25" y="10" width="6" height="1" fill="#0E1117"/><rect x="6" y="11" width="7" height="1" fill="#0E1117"/><rect x="13" y="11" width="1" height="1" fill="#CE7D53"/><rect x="14" y="11" width="1" height="1" fill="#0E1117"/><rect x="19" y="11" width="1" height="1" fill="#CE7D53"/><rect x="20" y="11" width="1" height="1" fill="#F2BA8B"/><rect x="25" y="11" width="5" height="1" fill="#0E1117"/><rect x="7" y="12" width="5" height="1" fill="#0E1117"/><rect x="12" y="12" width="1" height="2" fill="#CE7D53"/><rect x="13" y="12" width="1" height="1" fill="#0E1117"/><rect x="14" y="12" width="1" height="1" fill="#CE7D53"/><rect x="18" y="12" width="1" height="1" fill="#CE7D53"/><rect x="19" y="12" width="1" height="6" fill="#F2BA8B"/><rect x="20" y="12" width="1" height="1" fill="#0E1117"/><rect x="22" y="12" width="1" height="1" fill="#CE7D53"/><rect x="23" y="12" width="1" height="4" fill="#0E1117"/><rect x="25" y="12" width="3" height="3" fill="#0E1117"/><rect x="8" y="13" width="4" height="1" fill="#0E1117"/><rect x="13" y="13" width="2" height="2" fill="#F2BA8B"/><rect x="15" y="13" width="2" height="1" fill="#0E1117"/><rect x="17" y="13" width="1" height="1" fill="#CE7D53"/><rect x="18" y="13" width="1" height="6" fill="#F2BA8B"/><rect x="20" y="13" width="3" height="2" fill="#F2BA8B"/><rect x="28" y="13" width="4" height="1" fill="#0E1117"/><rect x="9" y="14" width="3" height="1" fill="#0E1117"/><rect x="12" y="14" width="1" height="3" fill="#F2BA8B"/><rect x="15" y="14" width="1" height="4" fill="#F2BA8B"/><rect x="16" y="14" width="1" height="1" fill="#0E1117"/><rect x="17" y="14" width="1" height="3" fill="#F2BA8B"/><rect x="28" y="14" width="3" height="1" fill="#0E1117"/><rect x="7" y="15" width="3" height="1" fill="#0E1117"/><rect x="10" y="15" width="1" height="1" fill="#CE7D53"/><rect x="11" y="15" width="1" height="1" fill="#0E1117"/><rect x="13" y="15" width="1" height="2" fill="#F2BA8B"/><rect x="14" y="15" width="1" height="2" fill="#0E1117"/><rect x="16" y="15" width="1" height="3" fill="#F2BA8B"/><rect x="20" y="15" width="1" height="2" fill="#0E1117"/><rect x="21" y="15" width="2" height="2" fill="#F2BA8B"/><rect x="25" y="15" width="1" height="1" fill="#CE7D53"/><rect x="26" y="15" width="3" height="1" fill="#0E1117"/><rect x="8" y="16" width="2" height="1" fill="#0E1117"/><rect x="10" y="16" width="1" height="2" fill="#F2BA8B"/><rect x="11" y="16" width="1" height="2" fill="#A55742"/><rect x="23" y="16" width="1" height="2" fill="#F2BA8B"/><rect x="24" y="16" width="1" height="1" fill="#A55742"/><rect x="25" y="16" width="1" height="2" fill="#F2BA8B"/><rect x="26" y="16" width="2" height="2" fill="#0E1117"/><rect x="9" y="17" width="1" height="1" fill="#0E1117"/><rect x="12" y="17" width="2" height="1" fill="#ED885E"/><rect x="14" y="17" width="1" height="3" fill="#F2BA8B"/><rect x="17" y="17" width="1" height="1" fill="#A55742"/><rect x="20" y="17" width="1" height="3" fill="#F2BA8B"/><rect x="21" y="17" width="2" height="1" fill="#ED885E"/><rect x="24" y="17" width="1" height="1" fill="#CE7D53"/><rect x="28" y="17" width="1" height="1" fill="#0E1117"/><rect x="10" y="18" width="2" height="1" fill="#0E1117"/><rect x="12" y="18" width="2" height="1" fill="#F2BA8B"/><rect x="15" y="18" width="2" height="1" fill="#000000"/><rect x="17" y="18" width="1" height="1" fill="#F2BA8B"/><rect x="19" y="18" width="1" height="1" fill="#0E1117"/><rect x="21" y="18" width="2" height="1" fill="#F2BA8B"/><rect x="23" y="18" width="1" height="1" fill="#CE7D53"/><rect x="24" y="18" width="1" height="1" fill="#F2BA8B"/><rect x="25" y="18" width="2" height="1" fill="#0E1117"/><rect x="12" y="19" width="1" height="1" fill="#0E1117"/><rect x="13" y="19" width="1" height="1" fill="#F2BA8B"/><rect x="15" y="19" width="1" height="2" fill="#F2BA8B"/><rect x="16" y="19" width="3" height="1" fill="#0E1117"/><rect x="19" y="19" width="1" height="2" fill="#F2BA8B"/><rect x="21" y="19" width="1" height="1" fill="#F2BA8B"/><rect x="22" y="19" width="1" height="1" fill="#CE7D53"/><rect x="23" y="19" width="2" height="1" fill="#0E1117"/><rect x="13" y="20" width="2" height="1" fill="#0E1117"/><rect x="16" y="20" width="3" height="1" fill="#F2BA8B"/><rect x="20" y="20" width="1" height="1" fill="#CE7D53"/><rect x="21" y="20" width="2" height="1" fill="#0E1117"/><rect x="13" y="21" width="1" height="1" fill="#722F1E"/><rect x="14" y="21" width="1" height="1" fill="#D15926"/><rect x="15" y="21" width="2" height="1" fill="#0E1117"/><rect x="17" y="21" width="3" height="1" fill="#CE7D53"/><rect x="20" y="21" width="1" height="1" fill="#0E1117"/><rect x="21" y="21" width="1" height="1" fill="#8A3D2B"/><rect x="22" y="21" width="1" height="1" fill="#D15926"/><rect x="23" y="21" width="1" height="1" fill="#0E1117"/><rect x="12" y="22" width="1" height="1" fill="#0E1117"/><rect x="13" y="22" width="2" height="1" fill="#DF712F"/><rect x="15" y="22" width="1" height="1" fill="#0E1117"/><rect x="16" y="22" width="3" height="1" fill="#CE7D53"/><rect x="19" y="22" width="1" height="1" fill="#0E1117"/><rect x="20" y="22" width="2" height="1" fill="#DF712F"/><rect x="22" y="22" width="1" height="1" fill="#0E1117"/><rect x="23" y="22" width="1" height="1" fill="#CE7D53"/><rect x="24" y="22" width="1" height="2" fill="#0E1117"/><rect x="11" y="23" width="1" height="3" fill="#0E1117"/><rect x="12" y="23" width="1" height="1" fill="#CE7D53"/><rect x="13" y="23" width="1" height="2" fill="#8A3D2B"/><rect x="14" y="23" width="2" height="3" fill="#DF712F"/><rect x="16" y="23" width="1" height="1" fill="#0E1117"/><rect x="17" y="23" width="1" height="1" fill="#F2BA8B"/><rect x="18" y="23" width="1" height="1" fill="#0E1117"/><rect x="19" y="23" width="1" height="1" fill="#DF712F"/><rect x="20" y="23" width="1" height="1" fill="#D15926"/><rect x="21" y="23" width="1" height="2" fill="#8A3D2B"/><rect x="22" y="23" width="1" height="1" fill="#CE7D53"/><rect x="23" y="23" width="1" height="4" fill="#F2BA8B"/><rect x="29" y="23" width="2" height="1" fill="#0E1117"/><rect x="12" y="24" width="1" height="2" fill="#F2BA8B"/><rect x="16" y="24" width="1" height="1" fill="#D15926"/><rect x="17" y="24" width="1" height="1" fill="#0E1117"/><rect x="18" y="24" width="2" height="1" fill="#D15926"/><rect x="20" y="24" width="1" height="1" fill="#DF712F"/><rect x="22" y="24" width="1" height="1" fill="#F2BA8B"/><rect x="24" y="24" width="1" height="3" fill="#F2BA8B"/><rect x="25" y="24" width="1" height="3" fill="#0E1117"/><rect x="28" y="24" width="1" height="1" fill="#0E1117"/><rect x="29" y="24" width="2" height="1" fill="#722F1E"/><rect x="31" y="24" width="1" height="1" fill="#0E1117"/><rect x="13" y="25" width="1" height="2" fill="#DF712F"/><rect x="16" y="25" width="1" height="2" fill="#DF712F"/><rect x="17" y="25" width="1" height="1" fill="#D15926"/><rect x="18" y="25" width="2" height="1" fill="#DF712F"/><rect x="20" y="25" width="2" height="1" fill="#D15926"/><rect x="22" y="25" width="1" height="2" fill="#722F1E"/><rect x="29" y="25" width="1" height="1" fill="#0E1117"/><rect x="30" y="25" width="2" height="1" fill="#8A3D2B"/><rect x="32" y="25" width="1" height="3" fill="#0E1117"/><rect x="10" y="26" width="1" height="5" fill="#0E1117"/><rect x="11" y="26" width="1" height="1" fill="#F2BA8B"/><rect x="12" y="26" width="1" height="1" fill="#CE7D53"/><rect x="14" y="26" width="2" height="1" fill="#8A3D2B"/><rect x="17" y="26" width="2" height="1" fill="#DF712F"/><rect x="19" y="26" width="2" height="1" fill="#8A3D2B"/><rect x="21" y="26" width="1" height="1" fill="#D15926"/><rect x="30" y="26" width="1" height="2" fill="#0E1117"/><rect x="31" y="26" width="1" height="1" fill="#722F1E"/><rect x="11" y="27" width="2" height="1" fill="#203D65"/><rect x="13" y="27" width="1" height="1" fill="#0E1117"/><rect x="14" y="27" width="2" height="1" fill="#1E2E4F"/><rect x="16" y="27" width="3" height="1" fill="#0E1117"/><rect x="19" y="27" width="3" height="1" fill="#1E2E4F"/><rect x="22" y="27" width="1" height="2" fill="#0E1117"/><rect x="23" y="27" width="2" height="2" fill="#203D65"/><rect x="25" y="27" width="1" height="1" fill="#1E2E4F"/><rect x="31" y="27" width="1" height="1" fill="#8A3D2B"/><rect x="11" y="28" width="1" height="1" fill="#203D65"/><rect x="12" y="28" width="1" height="1" fill="#1E2E4F"/><rect x="13" y="28" width="1" height="1" fill="#8A3D2B"/><rect x="14" y="28" width="1" height="1" fill="#DF712F"/><rect x="15" y="28" width="2" height="1" fill="#0E1117"/><rect x="17" y="28" width="1" height="1" fill="#1E2E4F"/><rect x="18" y="28" width="1" height="1" fill="#0E1117"/><rect x="19" y="28" width="2" height="1" fill="#BA4820"/><rect x="21" y="28" width="1" height="1" fill="#8A3D2B"/><rect x="25" y="28" width="1" height="4" fill="#0E1117"/><rect x="29" y="28" width="1" height="1" fill="#0E1117"/><rect x="30" y="28" width="1" height="1" fill="#722F1E"/><rect x="31" y="28" width="1" height="2" fill="#0E1117"/><rect x="11" y="29" width="1" height="2" fill="#F2BA8B"/><rect x="12" y="29" width="1" height="1" fill="#A55742"/><rect x="13" y="29" width="1" height="2" fill="#DF712F"/><rect x="14" y="29" width="1" height="3" fill="#1E2E4F"/><rect x="15" y="29" width="1" height="2" fill="#0E1117"/><rect x="16" y="29" width="1" height="3" fill="#DF712F"/><rect x="17" y="29" width="1" height="4" fill="#8A3D2B"/><rect x="18" y="29" width="1" height="2" fill="#203D65"/><rect x="19" y="29" width="1" height="2" fill="#0E1117"/><rect x="20" y="29" width="1" height="1" fill="#DF712F"/><rect x="21" y="29" width="1" height="1" fill="#D15926"/><rect x="22" y="29" width="3" height="1" fill="#F2BA8B"/><rect x="26" y="29" width="1" height="2" fill="#4F2017"/><rect x="27" y="29" width="1" height="1" fill="#301616"/><rect x="28" y="29" width="1" height="1" fill="#4F2017"/><rect x="29" y="29" width="1" height="1" fill="#722F1E"/><rect x="30" y="29" width="1" height="1" fill="#4F2017"/><rect x="12" y="30" width="1" height="1" fill="#8A3D2B"/><rect x="20" y="30" width="1" height="2" fill="#8A3D2B"/><rect x="21" y="30" width="1" height="1" fill="#DF712F"/><rect x="22" y="30" width="1" height="1" fill="#722F1E"/><rect x="23" y="30" width="2" height="1" fill="#F2BA8B"/><rect x="27" y="30" width="2" height="1" fill="#8A3D2B"/><rect x="29" y="30" width="1" height="1" fill="#301616"/><rect x="30" y="30" width="1" height="1" fill="#0E1117"/><rect x="11" y="31" width="2" height="1" fill="#0E1117"/><rect x="13" y="31" width="1" height="1" fill="#D15926"/><rect x="15" y="31" width="1" height="1" fill="#DF712F"/><rect x="18" y="31" width="1" height="1" fill="#DF712F"/><rect x="19" y="31" width="1" height="1" fill="#1E2E4F"/><rect x="21" y="31" width="1" height="1" fill="#D15926"/><rect x="22" y="31" width="1" height="2" fill="#DF712F"/><rect x="23" y="31" width="2" height="1" fill="#0E1117"/><rect x="26" y="31" width="4" height="1" fill="#0E1117"/><rect x="12" y="32" width="1" height="2" fill="#0E1117"/><rect x="13" y="32" width="2" height="1" fill="#DF712F"/><rect x="15" y="32" width="1" height="2" fill="#D15926"/><rect x="16" y="32" width="1" height="3" fill="#8A3D2B"/><rect x="18" y="32" width="1" height="2" fill="#0E1117"/><rect x="19" y="32" width="3" height="1" fill="#DF712F"/><rect x="23" y="32" width="1" height="1" fill="#BA4820"/><rect x="24" y="32" width="1" height="2" fill="#0E1117"/><rect x="13" y="33" width="1" height="1" fill="#8A3D2B"/><rect x="14" y="33" width="1" height="1" fill="#D15926"/><rect x="17" y="33" width="1" height="1" fill="#A55742"/><rect x="19" y="33" width="1" height="1" fill="#8A3D2B"/><rect x="20" y="33" width="2" height="1" fill="#DF712F"/><rect x="22" y="33" width="1" height="2" fill="#8A3D2B"/><rect x="23" y="33" width="1" height="1" fill="#DF712F"/><rect x="13" y="34" width="1" height="2" fill="#0E1117"/><rect x="14" y="34" width="2" height="1" fill="#8A3D2B"/><rect x="17" y="34" width="1" height="4" fill="#0E1117"/><rect x="19" y="34" width="1" height="1" fill="#0E1117"/><rect x="20" y="34" width="2" height="1" fill="#8A3D2B"/><rect x="23" y="34" width="1" height="2" fill="#0E1117"/><rect x="14" y="35" width="2" height="1" fill="#203D65"/><rect x="16" y="35" width="1" height="1" fill="#1E2E4F"/><rect x="20" y="35" width="1" height="3" fill="#0E1117"/><rect x="21" y="35" width="2" height="1" fill="#203D65"/><rect x="12" y="36" width="1" height="2" fill="#0E1117"/><rect x="13" y="36" width="3" height="1" fill="#8A3D2B"/><rect x="16" y="36" width="1" height="1" fill="#4F2017"/><rect x="21" y="36" width="1" height="1" fill="#8A3D2B"/><rect x="22" y="36" width="1" height="1" fill="#722F1E"/><rect x="23" y="36" width="1" height="1" fill="#8A3D2B"/><rect x="24" y="36" width="1" height="2" fill="#0E1117"/><rect x="11" y="37" width="1" height="1" fill="#A87B62"/><rect x="13" y="37" width="4" height="1" fill="#0E1117"/><rect x="18" y="37" width="2" height="1" fill="#B08E7A"/><rect x="21" y="37" width="3" height="1" fill="#0E1117"/><rect x="25" y="37" width="1" height="1" fill="#A87B62"/><rect x="26" y="37" width="1" height="1" fill="#B08E7A"/></g></svg>