<svg width="24" height="24" viewBox="0 0 24 24" xmlns="http://www.w3.org/2000/svg"><g><rect x="3" y="0" width="2" height="3" fill="#FFFFFF"/><rect x="5" y="0" width="3" height="1" fill="#DF4418"/><rect x="8" y="0" width="1" height="3" fill="#FFFFFF"/><rect x="5" y="1" width="2" height="2" fill="#DF4418"/><rect x="7" y="1" width="1" height="2" fill="#FFFFFF"/><rect x="9" y="1" width="1" height="2" fill="#FFFFFF"/><rect x="7" y="3" width="3" height="2" fill="#DF4418"/><rect x="5" y="5" width="1" height="5" fill="#DADADA"/><rect x="6" y="5" width="1" height="1" fill="#A08E8F"/><rect x="7" y="5" width="3" height="1" fill="#BA0505"/><rect x="10" y="5" width="11" height="1" fill="#A08E8F"/><rect x="21" y="5" width="1" height="6" fill="#FFFFFF"/><rect x="3" y="6" width="2" height="2" fill="#A08E8F"/><rect x="6" y="6" width="4" height="5" fill="#DADADA"/><rect x="10" y="6" width="7" height="1" fill="#FFFFFF"/><rect x="17" y="6" width="1" height="3" fill="#DADADA"/><rect x="18" y="6" width="3" height="1" fill="#FFFFFF"/><rect x="2" y="7" width="1" height="4" fill="#A08E8F"/><rect x="10" y="7" width="2" height="3" fill="#FFFFFF"/><rect x="12" y="7" width="2" height="1" fill="#1F1F1F"/><rect x="14" y="7" width="3" height="4" fill="#FFFFFF"/><rect x="18" y="7" width="2" height="1" fill="#1F1F1F"/><rect x="20" y="7" width="1" height="5" fill="#FFFFFF"/><rect x="3" y="8" width="1" height="4" fill="#A08E8F"/><rect x="4" y="8" width="1" height="3" fill="#FFD012"/><rect x="12" y="8" width="1" height="1" fill="#FFFFFF"/><rect x="13" y="8" width="1" height="2" fill="#1F1F1F"/><rect x="18" y="8" width="1" height="1" fill="#FFFFFF"/><rect x="19" y="8" width="1" height="2" fill="#1F1F1F"/><rect x="12" y="9" width="1" height="1" fill="#1F1F1F"/><rect x="17" y="9" width="2" height="1" fill="#DF4418"/><rect x="5" y="10" width="1" height="1" fill="#FFD012"/><rect x="10" y="10" width="1" height="2" fill="#DADADA"/><rect x="11" y="10" width="3" height="1" fill="#FFFFFF"/><rect x="17" y="10" width="2" height="1" fill="#BA0505"/><rect x="19" y="10" width="1" height="2" fill="#FFFFFF"/><rect x="4" y="11" width="2" height="2" fill="#A08E8F"/><rect x="6" y="11" width="3" height="1" fill="#DADADA"/><rect x="9" y="11" width="1" height="2" fill="#1F1F1F"/><rect x="11" y="11" width="1" height="2" fill="#DADADA"/><rect x="12" y="11" width="4" height="1" fill="#FFFFFF"/><rect x="16" y="11" width="3" height="3" fill="#DADADA"/><rect x="6" y="12" width="1" height="1" fill="#A08E8F"/><rect x="7" y="12" width="2" height="1" fill="#DADADA"/><rect x="10" y="12" width="1" height="1" fill="#1F1F1F"/><rect x="12" y="12" width="4" height="1" fill="#DADADA"/><rect x="19" y="12" width="2" height="1" fill="#DADADA"/><rect x="8" y="13" width="2" height="1" fill="#DADADA"/><rect x="10" y="13" width="3" height="1" fill="#BA0505"/><rect x="13" y="13" width="1" height="5" fill="#1F1F1F"/><rect x="14" y="13" width="2" height="1" fill="#DADADA"/><rect x="19" y="13" width="1" height="1" fill="#DADADA"/><rect x="7" y="14" width="6" height="1" fill="#1F1F1F"/><rect x="14" y="14" width="6" height="1" fill="#1F1F1F"/><rect x="6" y="15" width="3" height="1" fill="#1F1F1F"/><rect x="9" y="15" width="1" height="2" fill="#FFD012"/><rect x="10" y="15" width="3" height="1" fill="#1F1F1F"/><rect x="14" y="15" width="3" height="3" fill="#1F1F1F"/><rect x="17" y="15" width="1" height="2" fill="#FFD012"/><rect x="18" y="15" width="3" height="1" fill="#1F1F1F"/><rect x="6" y="16" width="2" height="1" fill="#1F1F1F"/><rect x="8" y="16" width="1" height="1" fill="#FFFFFF"/><rect x="10" y="16" width="1" height="1" fill="#FFD012"/><rect x="11" y="16" width="2" height="1" fill="#1F1F1F"/><rect x="18" y="16" width="1" height="1" fill="#FFD012"/><rect x="19" y="16" width="1" height="1" fill="#DADADA"/><rect x="20" y="16" width="1" height="1" fill="#1F1F1F"/><rect x="6" y="17" width="1" height="1" fill="#1F1F1F"/><rect x="7" y="17" width="1" height="1" fill="#FFFFFF"/><rect x="8" y="17" width="1" height="1" fill="#DADADA"/><rect x="9" y="17" width="2" height="3" fill="#FFFFFF"/><rect x="11" y="17" width="1" height="4" fill="#DF4418"/><rect x="12" y="17" width="1" height="1" fill="#1F1F1F"/><rect x="17" y="17" width="2" height="2" fill="#DF4418"/><rect x="19" y="17" width="1" height="1" fill="#A08E8F"/><rect x="20" y="17" width="1" height="1" fill="#DADADA"/><rect x="8" y="18" width="1" height="2" fill="#FFFFFF"/><rect x="12" y="18" width="5" height="2" fill="#DF4418"/><rect x="19" y="18" width="1" height="2" fill="#DADADA"/><rect x="17" y="19" width="1" height="1" fill="#DF4418"/><rect x="18" y="19" width="1" height="2" fill="#DADADA"/><rect x="9" y="20" width="1" height="2" fill="#FFFFFF"/><rect x="10" y="20" width="1" height="1" fill="#DF4418"/><rect x="12" y="20" width="3" height="1" fill="#DF4418"/><rect x="15" y="20" width="2" height="1" fill="#BA0505"/><rect x="17" y="20" width="1" height="2" fill="#DADADA"/><rect x="7" y="21" width="2" height="3" fill="#886139"/><rect x="10" y="21" width="2" height="1" fill="#FFFFFF"/><rect x="15" y="21" width="2" height="1" fill="#DADADA"/><rect x="18" y="21" width="2" height="3" fill="#5D4327"/><rect x="6" y="22" width="1" height="2" fill="#886139"/><rect x="9" y="22" width="3" height="2" fill="#886139"/><rect x="15" y="22" width="3" height="2" fill="#5D4327"/><rect x="20" y="22" width="1" height="2" fill="#5D4327"/></g></svg>