<svg width="48" height="48" viewBox="0 0 48 48" xmlns="http://www.w3.org/2000/svg"><g><rect x="17" y="0" width="2" height="1" fill="#103629"/><rect x="14" y="1" width="1" height="4" fill="#103629"/><rect x="16" y="1" width="1" height="1" fill="#103629"/><rect x="17" y="1" width="1" height="2" fill="#006A4A"/><rect x="18" y="1" width="1" height="2" fill="#103629"/><rect x="20" y="1" width="1" height="1" fill="#103629"/><rect x="22" y="1" width="1" height="2" fill="#103629"/><rect x="11" y="2" width="1" height="2" fill="#103629"/><rect x="12" y="2" width="1" height="1" fill="#006A4A"/><rect x="13" y="2" width="1" height="1" fill="#103629"/><rect x="15" y="2" width="1" height="1" fill="#103629"/><rect x="16" y="2" width="1" height="1" fill="#096E28"/><rect x="19" y="2" width="1" height="1" fill="#103629"/><rect x="20" y="2" width="1" height="1" fill="#096E28"/><rect x="21" y="2" width="1" height="1" fill="#103629"/><rect x="12" y="3" width="2" height="1" fill="#096E28"/><rect x="15" y="3" width="1" height="2" fill="#096E28"/><rect x="16" y="3" width="1" height="1" fill="#006A4A"/><rect x="17" y="3" width="1" height="1" fill="#096E28"/><rect x="18" y="3" width="1" height="2" fill="#006A4A"/><rect x="19" y="3" width="1" height="1" fill="#096E28"/><rect x="20" y="3" width="1" height="1" fill="#103629"/><rect x="21" y="3" width="2" height="1" fill="#006A4A"/><rect x="24" y="3" width="1" height="2" fill="#103629"/><rect x="9" y="4" width="2" height="1" fill="#103629"/><rect x="11" y="4" width="1" height="3" fill="#006A4A"/><rect x="12" y="4" width="1" height="1" fill="#103629"/><rect x="13" y="4" width="1" height="1" fill="#006A4A"/><rect x="16" y="4" width="1" height="1" fill="#096E28"/><rect x="17" y="4" width="1" height="1" fill="#006A4A"/><rect x="19" y="4" width="2" height="1" fill="#006A4A"/><rect x="21" y="4" width="1" height="1" fill="#096E28"/><rect x="22" y="4" width="1" height="1" fill="#006A4A"/><rect x="23" y="4" width="1" height="1" fill="#103629"/><rect x="10" y="5" width="1" height="1" fill="#103629"/><rect x="12" y="5" width="3" height="1" fill="#096E28"/><rect x="15" y="5" width="1" height="1" fill="#103629"/><rect x="16" y="5" width="1" height="1" fill="#006A4A"/><rect x="17" y="5" width="1" height="1" fill="#096E28"/><rect x="18" y="5" width="1" height="1" fill="#103629"/><rect x="19" y="5" width="2" height="1" fill="#096E28"/><rect x="21" y="5" width="2" height="1" fill="#103629"/><rect x="23" y="5" width="2" height="1" fill="#006A4A"/><rect x="25" y="5" width="1" height="4" fill="#103629"/><rect x="8" y="6" width="2" height="1" fill="#103629"/><rect x="10" y="6" width="1" height="1" fill="#006A4A"/><rect x="12" y="6" width="1" height="1" fill="#103629"/><rect x="13" y="6" width="3" height="1" fill="#006A4A"/><rect x="16" y="6" width="1" height="1" fill="#096E28"/><rect x="17" y="6" width="1" height="1" fill="#103629"/><rect x="18" y="6" width="1" height="1" fill="#006A4A"/><rect x="19" y="6" width="1" height="1" fill="#103629"/><rect x="20" y="6" width="1" height="4" fill="#006A4A"/><rect x="21" y="6" width="2" height="1" fill="#096E28"/><rect x="23" y="6" width="1" height="2" fill="#006A4A"/><rect x="24" y="6" width="1" height="1" fill="#103629"/><rect x="9" y="7" width="3" height="1" fill="#103629"/><rect x="12" y="7" width="2" height="1" fill="#006A4A"/><rect x="14" y="7" width="2" height="1" fill="#096E28"/><rect x="16" y="7" width="1" height="1" fill="#006A4A"/><rect x="17" y="7" width="1" height="1" fill="#252B05"/><rect x="18" y="7" width="1" height="1" fill="#103629"/><rect x="19" y="7" width="1" height="1" fill="#006A4A"/><rect x="21" y="7" width="2" height="1" fill="#006A4A"/><rect x="24" y="7" width="1" height="2" fill="#006A4A"/><rect x="26" y="7" width="1" height="1" fill="#103629"/><rect x="9" y="8" width="2" height="1" fill="#103629"/><rect x="11" y="8" width="2" height="1" fill="#006A4A"/><rect x="13" y="8" width="1" height="1" fill="#103629"/><rect x="14" y="8" width="2" height="1" fill="#006A4A"/><rect x="16" y="8" width="1" height="1" fill="#252B05"/><rect x="17" y="8" width="2" height="1" fill="#006A4A"/><rect x="19" y="8" width="1" height="2" fill="#103629"/><rect x="21" y="8" width="2" height="1" fill="#096E28"/><rect x="23" y="8" width="1" height="3" fill="#103629"/><rect x="26" y="8" width="1" height="2" fill="#006A4A"/><rect x="27" y="8" width="1" height="1" fill="#103629"/><rect x="7" y="9" width="2" height="1" fill="#103629"/><rect x="9" y="9" width="1" height="1" fill="#006A4A"/><rect x="10" y="9" width="1" height="1" fill="#103629"/><rect x="11" y="9" width="3" height="1" fill="#252B05"/><rect x="14" y="9" width="1" height="1" fill="#103629"/><rect x="15" y="9" width="1" height="1" fill="#006A4A"/><rect x="16" y="9" width="1" height="3" fill="#103629"/><rect x="17" y="9" width="1" height="1" fill="#006A4A"/><rect x="18" y="9" width="1" height="2" fill="#103629"/><rect x="21" y="9" width="2" height="1" fill="#006A4A"/><rect x="24" y="9" width="1" height="1" fill="#103629"/><rect x="25" y="9" width="1" height="2" fill="#006A4A"/><rect x="27" y="9" width="1" height="1" fill="#006A4A"/><rect x="28" y="9" width="1" height="1" fill="#103629"/><rect x="8" y="10" width="2" height="1" fill="#103629"/><rect x="10" y="10" width="1" height="1" fill="#006A4A"/><rect x="11" y="10" width="1" height="1" fill="#103629"/><rect x="12" y="10" width="1" height="3" fill="#252B05"/><rect x="13" y="10" width="1" height="1" fill="#7A3E22"/><rect x="14" y="10" width="1" height="1" fill="#252B05"/><rect x="15" y="10" width="1" height="1" fill="#103629"/><rect x="17" y="10" width="1" height="1" fill="#103629"/><rect x="19" y="10" width="1" height="1" fill="#D5A07E"/><rect x="20" y="10" width="1" height="1" fill="#103629"/><rect x="21" y="10" width="1" height="1" fill="#006A4A"/><rect x="22" y="10" width="1" height="2" fill="#103629"/><rect x="24" y="10" width="1" height="5" fill="#252B05"/><rect x="26" y="10" width="2" height="2" fill="#103629"/><rect x="9" y="11" width="2" height="1" fill="#103629"/><rect x="11" y="11" width="1" height="4" fill="#252B05"/><rect x="13" y="11" width="1" height="1" fill="#070E20"/><rect x="14" y="11" width="1" height="1" fill="#DD9467"/><rect x="15" y="11" width="1" height="1" fill="#252B05"/><rect x="17" y="11" width="1" height="1" fill="#D5A07E"/><rect x="18" y="11" width="3" height="1" fill="#070E20"/><rect x="21" y="11" width="1" height="1" fill="#103629"/><rect x="23" y="11" width="1" height="1" fill="#252B05"/><rect x="25" y="11" width="1" height="3" fill="#252B05"/><rect x="7" y="12" width="2" height="2" fill="#5F553C"/><rect x="9" y="12" width="2" height="1" fill="#252B05"/><rect x="13" y="12" width="1" height="2" fill="#D5D5D5"/><rect x="14" y="12" width="2" height="1" fill="#070E20"/><rect x="16" y="12" width="1" height="1" fill="#D5A07E"/><rect x="17" y="12" width="2" height="1" fill="#070E20"/><rect x="19" y="12" width="2" height="1" fill="#D5D5D5"/><rect x="21" y="12" width="2" height="1" fill="#252B05"/><rect x="23" y="12" width="1" height="2" fill="#D5A07E"/><rect x="26" y="12" width="1" height="1" fill="#252B05"/><rect x="5" y="13" width="2" height="1" fill="#5F553C"/><rect x="9" y="13" width="1" height="5" fill="#5F553C"/><rect x="10" y="13" width="1" height="1" fill="#252B05"/><rect x="12" y="13" width="1" height="2" fill="#7A3E22"/><rect x="14" y="13" width="1" height="1" fill="#103629"/><rect x="15" y="13" width="3" height="2" fill="#FDD5A4"/><rect x="18" y="13" width="1" height="1" fill="#103629"/><rect x="19" y="13" width="2" height="1" fill="#FFFFFF"/><rect x="21" y="13" width="1" height="2" fill="#D5A07E"/><rect x="22" y="13" width="1" height="1" fill="#252B05"/><rect x="4" y="14" width="1" height="1" fill="#5F553C"/><rect x="5" y="14" width="1" height="2" fill="#9E9785"/><rect x="6" y="14" width="1" height="1" fill="#C9B68B"/><rect x="7" y="14" width="1" height="1" fill="#FDD5A4"/><rect x="8" y="14" width="1" height="1" fill="#9E9785"/><rect x="10" y="14" width="1" height="1" fill="#5F553C"/><rect x="13" y="14" width="1" height="2" fill="#D5A07E"/><rect x="14" y="14" width="1" height="2" fill="#FDD5A4"/><rect x="18" y="14" width="3" height="1" fill="#FDD5A4"/><rect x="22" y="14" width="2" height="1" fill="#7A3E22"/><rect x="3" y="15" width="1" height="5" fill="#5F553C"/><rect x="4" y="15" width="1" height="2" fill="#C9B68B"/><rect x="6" y="15" width="1" height="1" fill="#5F553C"/><rect x="7" y="15" width="1" height="1" fill="#9E9785"/><rect x="8" y="15" width="1" height="2" fill="#C9B68B"/><rect x="10" y="15" width="1" height="2" fill="#C9B68B"/><rect x="11" y="15" width="1" height="3" fill="#103629"/><rect x="12" y="15" width="1" height="1" fill="#252B05"/><rect x="15" y="15" width="3" height="1" fill="#FFFFFF"/><rect x="18" y="15" width="1" height="1" fill="#D5D5D5"/><rect x="19" y="15" width="2" height="1" fill="#FDD5A4"/><rect x="21" y="15" width="1" height="2" fill="#7A3E22"/><rect x="22" y="15" width="2" height="1" fill="#252B05"/><rect x="5" y="16" width="2" height="1" fill="#FDD5A4"/><rect x="7" y="16" width="1" height="5" fill="#5F553C"/><rect x="12" y="16" width="1" height="2" fill="#0B3D48"/><rect x="13" y="16" width="1" height="1" fill="#7A3E22"/><rect x="14" y="16" width="1" height="1" fill="#D5A07E"/><rect x="15" y="16" width="4" height="1" fill="#070E20"/><rect x="19" y="16" width="1" height="1" fill="#FDD5A4"/><rect x="20" y="16" width="1" height="1" fill="#D5A07E"/><rect x="22" y="16" width="2" height="1" fill="#5F553C"/><rect x="4" y="17" width="3" height="1" fill="#5F553C"/><rect x="8" y="17" width="1" height="3" fill="#5F553C"/><rect x="10" y="17" width="1" height="1" fill="#5F553C"/><rect x="13" y="17" width="1" height="1" fill="#9E9785"/><rect x="14" y="17" width="1" height="1" fill="#7A3E22"/><rect x="15" y="17" width="2" height="1" fill="#070E20"/><rect x="17" y="17" width="2" height="1" fill="#9A251E"/><rect x="19" y="17" width="1" height="1" fill="#D5A07E"/><rect x="20" y="17" width="1" height="1" fill="#7A3E22"/><rect x="21" y="17" width="1" height="1" fill="#9E9785"/><rect x="22" y="17" width="2" height="1" fill="#C9B68B"/><rect x="24" y="17" width="1" height="1" fill="#5F553C"/><rect x="25" y="17" width="1" height="4" fill="#0B3D48"/><rect x="4" y="18" width="2" height="1" fill="#C9B68B"/><rect x="6" y="18" width="1" height="1" fill="#9E9785"/><rect x="12" y="18" width="1" height="1" fill="#103629"/><rect x="13" y="18" width="1" height="1" fill="#237D74"/><rect x="14" y="18" width="1" height="4" fill="#103629"/><rect x="15" y="18" width="1" height="1" fill="#7A3E22"/><rect x="16" y="18" width="3" height="1" fill="#D5A07E"/><rect x="19" y="18" width="1" height="1" fill="#7A3E22"/><rect x="20" y="18" width="1" height="1" fill="#9E9785"/><rect x="21" y="18" width="1" height="2" fill="#C9B68B"/><rect x="22" y="18" width="1" height="1" fill="#9E9785"/><rect x="23" y="18" width="2" height="1" fill="#0B3D48"/><rect x="26" y="18" width="2" height="1" fill="#0B3D48"/><rect x="4" y="19" width="3" height="1" fill="#5F553C"/><rect x="13" y="19" width="1" height="1" fill="#103629"/><rect x="15" y="19" width="1" height="1" fill="#405489"/><rect x="16" y="19" width="3" height="1" fill="#7A3E22"/><rect x="19" y="19" width="1" height="2" fill="#5F553C"/><rect x="20" y="19" width="1" height="1" fill="#C9B68B"/><rect x="22" y="19" width="1" height="3" fill="#0B3D48"/><rect x="23" y="19" width="1" height="2" fill="#237D74"/><rect x="24" y="19" width="1" height="1" fill="#33B790"/><rect x="26" y="19" width="1" height="1" fill="#0B3D48"/><rect x="27" y="19" width="3" height="1" fill="#103629"/><rect x="4" y="20" width="1" height="1" fill="#5F553C"/><rect x="5" y="20" width="2" height="1" fill="#9E9785"/><rect x="15" y="20" width="1" height="1" fill="#103629"/><rect x="16" y="20" width="1" height="1" fill="#405489"/><rect x="17" y="20" width="1" height="3" fill="#7991AB"/><rect x="18" y="20" width="1" height="1" fill="#BAD4EB"/><rect x="20" y="20" width="2" height="1" fill="#9E9785"/><rect x="24" y="20" width="1" height="1" fill="#0B3D48"/><rect x="26" y="20" width="1" height="1" fill="#103629"/><rect x="27" y="20" width="1" height="2" fill="#237D74"/><rect x="28" y="20" width="1" height="1" fill="#33B790"/><rect x="29" y="20" width="1" height="1" fill="#237D74"/><rect x="30" y="20" width="1" height="1" fill="#5F553C"/><rect x="31" y="20" width="2" height="1" fill="#9E9785"/><rect x="34" y="20" width="3" height="1" fill="#5F553C"/><rect x="5" y="21" width="2" height="1" fill="#5F553C"/><rect x="15" y="21" width="1" height="1" fill="#405489"/><rect x="16" y="21" width="1" height="1" fill="#7991AB"/><rect x="18" y="21" width="1" height="1" fill="#7991AB"/><rect x="19" y="21" width="1" height="1" fill="#103629"/><rect x="20" y="21" width="1" height="1" fill="#0B3D48"/><rect x="21" y="21" width="1" height="1" fill="#103629"/><rect x="23" y="21" width="1" height="1" fill="#103629"/><rect x="24" y="21" width="1" height="2" fill="#252B05"/><rect x="25" y="21" width="1" height="2" fill="#103629"/><rect x="26" y="21" width="1" height="1" fill="#237D74"/><rect x="28" y="21" width="1" height="1" fill="#237D74"/><rect x="29" y="21" width="1" height="1" fill="#5F553C"/><rect x="30" y="21" width="1" height="1" fill="#9E9785"/><rect x="31" y="21" width="2" height="1" fill="#FDD5A4"/><rect x="33" y="21" width="1" height="2" fill="#5F553C"/><rect x="34" y="21" width="2" height="1" fill="#FDD5A4"/><rect x="36" y="21" width="1" height="2" fill="#5F553C"/><rect x="38" y="21" width="3" height="1" fill="#5F553C"/><rect x="15" y="22" width="1" height="1" fill="#103629"/><rect x="16" y="22" width="1" height="1" fill="#405489"/><rect x="18" y="22" width="1" height="1" fill="#103629"/><rect x="19" y="22" width="1" height="3" fill="#237D74"/><rect x="20" y="22" width="2" height="1" fill="#33B790"/><rect x="22" y="22" width="1" height="1" fill="#237D74"/><rect x="23" y="22" width="1" height="1" fill="#0B3D48"/><rect x="26" y="22" width="2" height="1" fill="#0B3D48"/><rect x="28" y="22" width="1" height="3" fill="#5F553C"/><rect x="29" y="22" width="1" height="2" fill="#C9B68B"/><rect x="30" y="22" width="1" height="1" fill="#E6D6B4"/><rect x="31" y="22" width="2" height="1" fill="#9E9785"/><rect x="34" y="22" width="1" height="1" fill="#C9B68B"/><rect x="35" y="22" width="1" height="2" fill="#9E9785"/><rect x="37" y="22" width="1" height="1" fill="#5F553C"/><rect x="38" y="22" width="2" height="1" fill="#FDD5A4"/><rect x="40" y="22" width="1" height="1" fill="#5F553C"/><rect x="16" y="23" width="2" height="1" fill="#103629"/><rect x="18" y="23" width="1" height="1" fill="#237D74"/><rect x="20" y="23" width="2" height="1" fill="#237D74"/><rect x="22" y="23" width="3" height="1" fill="#103629"/><rect x="25" y="23" width="2" height="2" fill="#FFFFFF"/><rect x="27" y="23" width="1" height="1" fill="#103629"/><rect x="30" y="23" width="1" height="2" fill="#C9B68B"/><rect x="31" y="23" width="1" height="1" fill="#FDD5A4"/><rect x="32" y="23" width="1" height="2" fill="#5F553C"/><rect x="33" y="23" width="1" height="1" fill="#9E9785"/><rect x="34" y="23" width="1" height="2" fill="#FDD5A4"/><rect x="36" y="23" width="1" height="1" fill="#9E9785"/><rect x="37" y="23" width="1" height="1" fill="#FDD5A4"/><rect x="38" y="23" width="1" height="1" fill="#C9B68B"/><rect x="39" y="23" width="1" height="1" fill="#5F553C"/><rect x="17" y="24" width="1" height="1" fill="#103629"/><rect x="18" y="24" width="1" height="1" fill="#0B3D48"/><rect x="20" y="24" width="1" height="1" fill="#237D74"/><rect x="21" y="24" width="1" height="1" fill="#0B3D48"/><rect x="22" y="24" width="1" height="1" fill="#103629"/><rect x="23" y="24" width="1" height="1" fill="#0B3D48"/><rect x="24" y="24" width="1" height="2" fill="#103629"/><rect x="27" y="24" width="1" height="2" fill="#FFFFFF"/><rect x="29" y="24" width="1" height="1" fill="#9E9785"/><rect x="31" y="24" width="1" height="2" fill="#5F553C"/><rect x="33" y="24" width="1" height="2" fill="#FDD5A4"/><rect x="35" y="24" width="1" height="2" fill="#C9B68B"/><rect x="36" y="24" width="1" height="1" fill="#FDD5A4"/><rect x="37" y="24" width="1" height="1" fill="#C9B68B"/><rect x="38" y="24" width="1" height="2" fill="#5F553C"/><rect x="16" y="25" width="1" height="1" fill="#550818"/><rect x="17" y="25" width="1" height="1" fill="#D13157"/><rect x="18" y="25" width="1" height="3" fill="#550818"/><rect x="19" y="25" width="2" height="1" fill="#0B3D48"/><rect x="21" y="25" width="2" height="1" fill="#237D74"/><rect x="23" y="25" width="1" height="1" fill="#103629"/><rect x="25" y="25" width="2" height="1" fill="#550818"/><rect x="28" y="25" width="1" height="2" fill="#FFFFFF"/><rect x="29" y="25" width="2" height="1" fill="#5F553C"/><rect x="32" y="25" width="1" height="1" fill="#FDD5A4"/><rect x="34" y="25" width="1" height="1" fill="#C9B68B"/><rect x="36" y="25" width="1" height="1" fill="#C9B68B"/><rect x="37" y="25" width="1" height="1" fill="#9E9785"/><rect x="39" y="25" width="2" height="1" fill="#5F553C"/><rect x="15" y="26" width="1" height="2" fill="#550818"/><rect x="16" y="26" width="1" height="1" fill="#A50624"/><rect x="17" y="26" width="1" height="2" fill="#550818"/><rect x="19" y="26" width="1" height="1" fill="#550818"/><rect x="20" y="26" width="1" height="1" fill="#103629"/><rect x="21" y="26" width="2" height="1" fill="#0B3D48"/><rect x="23" y="26" width="2" height="1" fill="#550818"/><rect x="25" y="26" width="1" height="1" fill="#A50624"/><rect x="26" y="26" width="1" height="1" fill="#D13157"/><rect x="27" y="26" width="1" height="1" fill="#550818"/><rect x="29" y="26" width="1" height="1" fill="#5F553C"/><rect x="30" y="26" width="2" height="1" fill="#FDD5A4"/><rect x="32" y="26" width="1" height="1" fill="#C9B68B"/><rect x="33" y="26" width="4" height="1" fill="#5F553C"/><rect x="37" y="26" width="2" height="1" fill="#C9B68B"/><rect x="39" y="26" width="1" height="1" fill="#FDD5A4"/><rect x="40" y="26" width="1" height="1" fill="#5F553C"/><rect x="16" y="27" width="1" height="1" fill="#550818"/><rect x="19" y="27" width="1" height="1" fill="#9A251E"/><rect x="20" y="27" width="2" height="2" fill="#252B05"/><rect x="22" y="27" width="2" height="1" fill="#9A251E"/><rect x="24" y="27" width="2" height="1" fill="#550818"/><rect x="26" y="27" width="2" height="1" fill="#A50624"/><rect x="28" y="27" width="1" height="1" fill="#0B3D48"/><rect x="29" y="27" width="1" height="1" fill="#FFFFFF"/><rect x="30" y="27" width="3" height="1" fill="#5F553C"/><rect x="36" y="27" width="4" height="1" fill="#5F553C"/><rect x="14" y="28" width="1" height="1" fill="#2A4445"/><rect x="15" y="28" width="1" height="1" fill="#237D74"/><rect x="16" y="28" width="3" height="1" fill="#0B3D48"/><rect x="19" y="28" width="1" height="1" fill="#550818"/><rect x="22" y="28" width="2" height="1" fill="#550818"/><rect x="24" y="28" width="1" height="1" fill="#2E2A29"/><rect x="25" y="28" width="3" height="1" fill="#550818"/><rect x="28" y="28" width="1" height="1" fill="#405489"/><rect x="29" y="28" width="1" height="1" fill="#0B3D48"/><rect x="12" y="29" width="1" height="1" fill="#0B3D48"/><rect x="13" y="29" width="1" height="1" fill="#103629"/><rect x="14" y="29" width="1" height="1" fill="#237D74"/><rect x="15" y="29" width="1" height="1" fill="#33B790"/><rect x="16" y="29" width="3" height="1" fill="#237D74"/><rect x="19" y="29" width="1" height="1" fill="#0B3D48"/><rect x="20" y="29" width="1" height="2" fill="#103629"/><rect x="21" y="29" width="1" height="1" fill="#237D74"/><rect x="22" y="29" width="5" height="1" fill="#0B3D48"/><rect x="27" y="29" width="1" height="4" fill="#237D74"/><rect x="28" y="29" width="1" height="1" fill="#0B3D48"/><rect x="29" y="29" width="1" height="1" fill="#405489"/><rect x="11" y="30" width="1" height="2" fill="#0B3D48"/><rect x="12" y="30" width="1" height="1" fill="#103629"/><rect x="13" y="30" width="1" height="1" fill="#0B3D48"/><rect x="14" y="30" width="1" height="1" fill="#33B790"/><rect x="15" y="30" width="2" height="2" fill="#237D74"/><rect x="17" y="30" width="2" height="1" fill="#0B3D48"/><rect x="19" y="30" width="1" height="1" fill="#103629"/><rect x="21" y="30" width="1" height="2" fill="#103629"/><rect x="22" y="30" width="2" height="1" fill="#0B3D48"/><rect x="24" y="30" width="3" height="1" fill="#237D74"/><rect x="28" y="30" width="1" height="1" fill="#33B790"/><rect x="29" y="30" width="1" height="1" fill="#2A4445"/><rect x="30" y="30" width="1" height="3" fill="#0B3D48"/><rect x="31" y="30" width="1" height="1" fill="#2A4445"/><rect x="12" y="31" width="1" height="2" fill="#0B3D48"/><rect x="13" y="31" width="2" height="1" fill="#237D74"/><rect x="17" y="31" width="2" height="1" fill="#237D74"/><rect x="19" y="31" width="2" height="1" fill="#0B3D48"/><rect x="22" y="31" width="3" height="1" fill="#103629"/><rect x="25" y="31" width="2" height="1" fill="#0B3D48"/><rect x="28" y="31" width="2" height="2" fill="#237D74"/><rect x="31" y="31" width="1" height="2" fill="#405489"/><rect x="32" y="31" width="1" height="1" fill="#0B3D48"/><rect x="10" y="32" width="1" height="1" fill="#0B3D48"/><rect x="11" y="32" width="1" height="1" fill="#405489"/><rect x="13" y="32" width="3" height="1" fill="#0B3D48"/><rect x="16" y="32" width="2" height="1" fill="#237D74"/><rect x="18" y="32" width="2" height="1" fill="#0B3D48"/><rect x="20" y="32" width="1" height="1" fill="#103629"/><rect x="21" y="32" width="2" height="2" fill="#550818"/><rect x="25" y="32" width="1" height="1" fill="#103629"/><rect x="26" y="32" width="1" height="1" fill="#237D74"/><rect x="32" y="32" width="1" height="1" fill="#768193"/><rect x="33" y="32" width="1" height="2" fill="#0B3D48"/><rect x="9" y="33" width="1" height="1" fill="#2A4445"/><rect x="10" y="33" width="1" height="1" fill="#7991AB"/><rect x="11" y="33" width="1" height="1" fill="#0B3D48"/><rect x="12" y="33" width="3" height="1" fill="#405489"/><rect x="15" y="33" width="1" height="2" fill="#0B3D48"/><rect x="16" y="33" width="1" height="2" fill="#252B05"/><rect x="17" y="33" width="1" height="1" fill="#0B3D48"/><rect x="18" y="33" width="2" height="1" fill="#103629"/><rect x="20" y="33" width="1" height="3" fill="#550818"/><rect x="23" y="33" width="1" height="1" fill="#5F553C"/><rect x="26" y="33" width="2" height="1" fill="#103629"/><rect x="28" y="33" width="2" height="1" fill="#0B3D48"/><rect x="30" y="33" width="1" height="2" fill="#237D74"/><rect x="31" y="33" width="1" height="4" fill="#0B3D48"/><rect x="32" y="33" width="1" height="3" fill="#405489"/><rect x="9" y="34" width="2" height="1" fill="#0B3D48"/><rect x="11" y="34" width="1" height="1" fill="#405489"/><rect x="12" y="34" width="1" height="2" fill="#0B3D48"/><rect x="13" y="34" width="1" height="1" fill="#405489"/><rect x="14" y="34" width="1" height="3" fill="#0B3D48"/><rect x="17" y="34" width="1" height="1" fill="#103629"/><rect x="18" y="34" width="1" height="2" fill="#252B05"/><rect x="19" y="34" width="1" height="5" fill="#550818"/><rect x="21" y="34" width="1" height="1" fill="#A50624"/><rect x="22" y="34" width="1" height="1" fill="#550818"/><rect x="23" y="34" width="1" height="1" fill="#515254"/><rect x="26" y="34" width="1" height="1" fill="#252B05"/><rect x="27" y="34" width="1" height="1" fill="#0B3D48"/><rect x="28" y="34" width="1" height="1" fill="#103629"/><rect x="29" y="34" width="1" height="1" fill="#237D74"/><rect x="33" y="34" width="1" height="1" fill="#3D5267"/><rect x="34" y="34" width="1" height="1" fill="#0B3D48"/><rect x="9" y="35" width="1" height="1" fill="#252B05"/><rect x="10" y="35" width="2" height="1" fill="#0B3D48"/><rect x="13" y="35" width="1" height="3" fill="#252B05"/><rect x="15" y="35" width="1" height="2" fill="#252B05"/><rect x="16" y="35" width="1" height="1" fill="#0B3D48"/><rect x="17" y="35" width="1" height="1" fill="#252B05"/><rect x="21" y="35" width="1" height="1" fill="#9A251E"/><rect x="22" y="35" width="1" height="3" fill="#9E9785"/><rect x="23" y="35" width="1" height="1" fill="#5F553C"/><rect x="27" y="35" width="1" height="1" fill="#252B05"/><rect x="28" y="35" width="1" height="1" fill="#0B3D48"/><rect x="29" y="35" width="2" height="1" fill="#103629"/><rect x="33" y="35" width="1" height="1" fill="#0B3D48"/><rect x="34" y="35" width="1" height="1" fill="#7991AB"/><rect x="35" y="35" width="1" height="1" fill="#103629"/><rect x="10" y="36" width="1" height="1" fill="#252B05"/><rect x="11" y="36" width="1" height="1" fill="#0B3D48"/><rect x="12" y="36" width="1" height="2" fill="#252B05"/><rect x="16" y="36" width="1" height="1" fill="#252B05"/><rect x="17" y="36" width="2" height="1" fill="#550818"/><rect x="20" y="36" width="1" height="2" fill="#9A251E"/><rect x="21" y="36" width="1" height="2" fill="#550818"/><rect x="28" y="36" width="1" height="1" fill="#252B05"/><rect x="29" y="36" width="2" height="1" fill="#0B3D48"/><rect x="32" y="36" width="1" height="1" fill="#0B3D48"/><rect x="33" y="36" width="1" height="1" fill="#3D5267"/><rect x="34" y="36" width="3" height="1" fill="#0B3D48"/><rect x="11" y="37" width="1" height="1" fill="#252B05"/><rect x="14" y="37" width="1" height="1" fill="#252B05"/><rect x="16" y="37" width="2" height="1" fill="#550818"/><rect x="18" y="37" width="1" height="1" fill="#9A251E"/><rect x="29" y="37" width="3" height="1" fill="#252B05"/><rect x="32" y="37" width="1" height="1" fill="#405489"/><rect x="33" y="37" width="3" height="1" fill="#0B3D48"/><rect x="36" y="37" width="1" height="4" fill="#252B05"/><rect x="37" y="37" width="2" height="1" fill="#9A251E"/><rect x="16" y="38" width="1" height="1" fill="#550818"/><rect x="17" y="38" width="1" height="1" fill="#9A251E"/><rect x="18" y="38" width="1" height="1" fill="#A50624"/><rect x="20" y="38" width="1" height="1" fill="#A50624"/><rect x="21" y="38" width="1" height="2" fill="#9E9785"/><rect x="22" y="38" width="1" height="2" fill="#5F553C"/><rect x="31" y="38" width="2" height="1" fill="#252B05"/><rect x="33" y="38" width="2" height="1" fill="#0B3D48"/><rect x="35" y="38" width="1" height="3" fill="#252B05"/><rect x="37" y="38" width="1" height="1" fill="#2A4445"/><rect x="38" y="38" width="1" height="2" fill="#D13157"/><rect x="39" y="38" width="1" height="1" fill="#D5D5D5"/><rect x="16" y="39" width="1" height="1" fill="#5F553C"/><rect x="17" y="39" width="2" height="1" fill="#550818"/><rect x="19" y="39" width="1" height="1" fill="#9A251E"/><rect x="20" y="39" width="1" height="1" fill="#550818"/><rect x="32" y="39" width="3" height="1" fill="#252B05"/><rect x="37" y="39" width="1" height="1" fill="#252B05"/><rect x="39" y="39" width="1" height="2" fill="#9A251E"/><rect x="40" y="39" width="1" height="1" fill="#D5D5D5"/><rect x="17" y="40" width="1" height="1" fill="#515254"/><rect x="18" y="40" width="1" height="1" fill="#5F553C"/><rect x="19" y="40" width="1" height="1" fill="#515254"/><rect x="20" y="40" width="1" height="1" fill="#9E9785"/><rect x="21" y="40" width="1" height="1" fill="#5F553C"/><rect x="33" y="40" width="1" height="2" fill="#550818"/><rect x="34" y="40" width="1" height="1" fill="#252B05"/><rect x="37" y="40" width="1" height="2" fill="#9A251E"/><rect x="38" y="40" width="1" height="2" fill="#550818"/><rect x="40" y="40" width="1" height="1" fill="#D13157"/><rect x="41" y="40" width="1" height="1" fill="#D5D5D5"/><rect x="34" y="41" width="3" height="1" fill="#9A251E"/><rect x="39" y="41" width="1" height="1" fill="#550818"/><rect x="40" y="41" width="1" height="1" fill="#A50624"/><rect x="41" y="41" width="1" height="1" fill="#BA4862"/><rect x="42" y="41" width="1" height="1" fill="#D5D5D5"/><rect x="34" y="42" width="1" height="1" fill="#550818"/><rect x="35" y="42" width="1" height="1" fill="#9A251E"/><rect x="36" y="42" width="2" height="1" fill="#550818"/><rect x="38" y="42" width="2" height="1" fill="#0B3D48"/><rect x="40" y="42" width="1" height="1" fill="#550818"/><rect x="41" y="42" width="1" height="1" fill="#9A251E"/><rect x="42" y="42" width="1" height="1" fill="#BA4862"/><rect x="43" y="42" width="1" height="1" fill="#D5D5D5"/><rect x="35" y="43" width="1" height="1" fill="#515254"/><rect x="36" y="43" width="1" height="1" fill="#550818"/><rect x="37" y="43" width="2" height="1" fill="#0B3D48"/><rect x="39" y="43" width="1" height="3" fill="#9A251E"/><rect x="40" y="43" width="1" height="1" fill="#A50624"/><rect x="41" y="43" width="1" height="3" fill="#550818"/><rect x="42" y="43" width="1" height="1" fill="#9A251E"/><rect x="43" y="43" width="1" height="2" fill="#9E9785"/><rect x="36" y="44" width="1" height="1" fill="#A50624"/><rect x="37" y="44" width="1" height="1" fill="#550818"/><rect x="38" y="44" width="1" height="1" fill="#A50624"/><rect x="40" y="44" width="1" height="1" fill="#9A251E"/><rect x="42" y="44" width="1" height="1" fill="#A50624"/><rect x="36" y="45" width="1" height="1" fill="#5F553C"/><rect x="37" y="45" width="1" height="1" fill="#9A251E"/><rect x="38" y="45" width="1" height="1" fill="#550818"/><rect x="40" y="45" width="1" height="1" fill="#A50624"/><rect x="42" y="45" width="1" height="1" fill="#9A251E"/><rect x="43" y="45" width="1" height="1" fill="#5F553C"/><rect x="37" y="46" width="1" height="1" fill="#515254"/><rect x="38" y="46" width="1" height="1" fill="#9A251E"/><rect x="39" y="46" width="2" height="1" fill="#550818"/><rect x="41" y="46" width="1" height="1" fill="#A50624"/><rect x="42" y="46" width="1" height="1" fill="#5F553C"/><rect x="43" y="46" width="1" height="2" fill="#FFFFFF"/><rect x="38" y="47" width="1" height="1" fill="#515254"/><rect x="39" y="47" width="3" height="1" fill="#5F553C"/><rect x="42" y="47" width="1" height="1" fill="#FFFFFF"/></g></svg>