<svg width="27" height="27" viewBox="0 0 27 27" xmlns="http://www.w3.org/2000/svg"><g><rect x="7" y="0" width="8" height="1" fill="#000000"/><rect x="18" y="0" width="1" height="1" fill="#000000"/><rect x="6" y="1" width="1" height="1" fill="#000000"/><rect x="7" y="1" width="3" height="1" fill="#243A76"/><rect x="10" y="1" width="1" height="3" fill="#2A4890"/><rect x="11" y="1" width="1" height="3" fill="#000000"/><rect x="12" y="1" width="1" height="3" fill="#F9CFA9"/><rect x="13" y="1" width="2" height="1" fill="#243A76"/><rect x="15" y="1" width="3" height="1" fill="#000000"/><rect x="18" y="1" width="1" height="1" fill="#243A76"/><rect x="19" y="1" width="1" height="4" fill="#000000"/><rect x="7" y="2" width="1" height="1" fill="#000000"/><rect x="8" y="2" width="1" height="1" fill="#243A76"/><rect x="9" y="2" width="1" height="1" fill="#2A4890"/><rect x="13" y="2" width="1" height="1" fill="#F9CFA9"/><rect x="14" y="2" width="1" height="1" fill="#243A76"/><rect x="15" y="2" width="2" height="2" fill="#2A4890"/><rect x="17" y="2" width="1" height="1" fill="#000000"/><rect x="18" y="2" width="1" height="4" fill="#2A4890"/><rect x="8" y="3" width="1" height="1" fill="#000000"/><rect x="9" y="3" width="1" height="1" fill="#243A76"/><rect x="13" y="3" width="2" height="1" fill="#2A4890"/><rect x="17" y="3" width="1" height="7" fill="#2A4890"/><rect x="9" y="4" width="1" height="1" fill="#000000"/><rect x="10" y="4" width="1" height="2" fill="#243A76"/><rect x="11" y="4" width="3" height="1" fill="#2A4890"/><rect x="14" y="4" width="2" height="1" fill="#243A76"/><rect x="16" y="4" width="1" height="1" fill="#2A4890"/><rect x="8" y="5" width="1" height="1" fill="#000000"/><rect x="9" y="5" width="1" height="1" fill="#243A76"/><rect x="11" y="5" width="1" height="1" fill="#243A76"/><rect x="12" y="5" width="2" height="1" fill="#2A4890"/><rect x="14" y="5" width="2" height="2" fill="#FFFFFF"/><rect x="16" y="5" width="1" height="2" fill="#243A76"/><rect x="19" y="5" width="1" height="1" fill="#2A4890"/><rect x="20" y="5" width="1" height="5" fill="#000000"/><rect x="7" y="6" width="1" height="1" fill="#000000"/><rect x="8" y="6" width="1" height="1" fill="#243A76"/><rect x="9" y="6" width="4" height="2" fill="#2A4890"/><rect x="13" y="6" width="1" height="4" fill="#FFFFFF"/><rect x="18" y="6" width="2" height="1" fill="#243A76"/><rect x="6" y="7" width="1" height="1" fill="#000000"/><rect x="7" y="7" width="1" height="2" fill="#243A76"/><rect x="8" y="7" width="1" height="1" fill="#2A4890"/><rect x="14" y="7" width="1" height="3" fill="#1B1B1D"/><rect x="15" y="7" width="2" height="4" fill="#FFFFFF"/><rect x="18" y="7" width="1" height="3" fill="#1B1B1D"/><rect x="19" y="7" width="1" height="3" fill="#FFFFFF"/><rect x="5" y="8" width="1" height="2" fill="#000000"/><rect x="6" y="8" width="1" height="1" fill="#243A76"/><rect x="8" y="8" width="4" height="1" fill="#243A76"/><rect x="12" y="8" width="1" height="2" fill="#2A4890"/><rect x="6" y="9" width="4" height="1" fill="#000000"/><rect x="10" y="9" width="1" height="1" fill="#243A76"/><rect x="11" y="9" width="1" height="3" fill="#2A4890"/><rect x="8" y="10" width="1" height="1" fill="#000000"/><rect x="9" y="10" width="1" height="1" fill="#243A76"/><rect x="10" y="10" width="1" height="2" fill="#2A4890"/><rect x="12" y="10" width="3" height="2" fill="#F9CFA9"/><rect x="17" y="10" width="1" height="3" fill="#F9CFA9"/><rect x="18" y="10" width="2" height="1" fill="#000000"/><rect x="7" y="11" width="1" height="2" fill="#000000"/><rect x="8" y="11" width="1" height="1" fill="#243A76"/><rect x="9" y="11" width="1" height="1" fill="#2A4890"/><rect x="15" y="11" width="2" height="2" fill="#F9CFA9"/><rect x="18" y="11" width="1" height="1" fill="#F9CFA9"/><rect x="19" y="11" width="2" height="1" fill="#000000"/><rect x="6" y="12" width="1" height="1" fill="#000000"/><rect x="8" y="12" width="5" height="1" fill="#000000"/><rect x="13" y="12" width="2" height="1" fill="#F9CFA9"/><rect x="18" y="12" width="1" height="1" fill="#000000"/><rect x="8" y="13" width="2" height="1" fill="#000000"/><rect x="10" y="13" width="3" height="1" fill="#F9CFA9"/><rect x="13" y="13" width="5" height="1" fill="#000000"/><rect x="7" y="14" width="1" height="1" fill="#000000"/><rect x="8" y="14" width="2" height="1" fill="#F9CFA9"/><rect x="10" y="14" width="3" height="1" fill="#000000"/><rect x="13" y="14" width="3" height="2" fill="#F9CFA9"/><rect x="16" y="14" width="1" height="2" fill="#000000"/><rect x="6" y="15" width="1" height="2" fill="#000000"/><rect x="7" y="15" width="1" height="1" fill="#F9CFA9"/><rect x="8" y="15" width="1" height="1" fill="#000000"/><rect x="9" y="15" width="1" height="1" fill="#C0C0C0"/><rect x="10" y="15" width="1" height="3" fill="#FFFFFF"/><rect x="11" y="15" width="1" height="1" fill="#000000"/><rect x="12" y="15" width="1" height="7" fill="#243A76"/><rect x="17" y="15" width="1" height="1" fill="#000000"/><rect x="7" y="16" width="1" height="2" fill="#000000"/><rect x="8" y="16" width="1" height="2" fill="#C0C0C0"/><rect x="9" y="16" width="1" height="2" fill="#FFFFFF"/><rect x="11" y="16" width="1" height="2" fill="#FFFFFF"/><rect x="13" y="16" width="2" height="1" fill="#F9CFA9"/><rect x="15" y="16" width="1" height="2" fill="#000000"/><rect x="16" y="16" width="1" height="1" fill="#C0C0C0"/><rect x="17" y="16" width="1" height="2" fill="#FFFFFF"/><rect x="18" y="16" width="1" height="2" fill="#000000"/><rect x="13" y="17" width="1" height="1" fill="#243A76"/><rect x="14" y="17" width="1" height="2" fill="#000000"/><rect x="16" y="17" width="1" height="2" fill="#FFFFFF"/><rect x="8" y="18" width="1" height="1" fill="#000000"/><rect x="9" y="18" width="2" height="1" fill="#C0C0C0"/><rect x="11" y="18" width="1" height="4" fill="#000000"/><rect x="13" y="18" width="1" height="4" fill="#000000"/><rect x="15" y="18" width="1" height="1" fill="#C0C0C0"/><rect x="17" y="18" width="1" height="1" fill="#000000"/><rect x="9" y="19" width="2" height="1" fill="#000000"/><rect x="14" y="19" width="1" height="3" fill="#243A76"/><rect x="15" y="19" width="2" height="1" fill="#000000"/><rect x="15" y="20" width="1" height="2" fill="#000000"/><rect x="16" y="21" width="1" height="1" fill="#000000"/><rect x="10" y="22" width="1" height="2" fill="#000000"/><rect x="11" y="22" width="1" height="1" fill="#C0C0C0"/><rect x="12" y="22" width="2" height="1" fill="#FFFFFF"/><rect x="14" y="22" width="1" height="2" fill="#000000"/><rect x="15" y="22" width="1" height="1" fill="#C0C0C0"/><rect x="16" y="22" width="1" height="1" fill="#FFFFFF"/><rect x="17" y="22" width="1" height="2" fill="#000000"/><rect x="11" y="23" width="3" height="1" fill="#941820"/><rect x="15" y="23" width="2" height="1" fill="#941820"/><rect x="18" y="23" width="2" height="1" fill="#000000"/><rect x="9" y="24" width="1" height="1" fill="#000000"/><rect x="10" y="24" width="2" height="1" fill="#C0C0C0"/><rect x="12" y="24" width="2" height="1" fill="#FFFFFF"/><rect x="14" y="24" width="1" height="1" fill="#941820"/><rect x="15" y="24" width="1" height="3" fill="#000000"/><rect x="16" y="24" width="4" height="2" fill="#941820"/><rect x="20" y="24" width="1" height="1" fill="#000000"/><rect x="8" y="25" width="1" height="2" fill="#000000"/><rect x="9" y="25" width="5" height="1" fill="#941820"/><rect x="14" y="25" width="1" height="1" fill="#FFFFFF"/><rect x="20" y="25" width="1" height="1" fill="#941820"/><rect x="21" y="25" width="1" height="2" fill="#000000"/><rect x="9" y="26" width="6" height="1" fill="#000000"/><rect x="16" y="26" width="5" height="1" fill="#000000"/></g></svg>